HIERARCHY
ROOT Hips
{
	OFFSET 0.000000 0.000000 0.000000
	CHANNELS 6 Xposition Yposition Zposition Xrotation Yrotation Zrotation
	JOINT Thigh.L
	{
		OFFSET 0.054766 0.030617 -0.092315
		CHANNELS 3 Xrotation Yrotation Zrotation
		JOINT Shin.L
		{
			OFFSET 0.053323 0.015523 -0.412023
			CHANNELS 3 Xrotation Yrotation Zrotation
			JOINT Foot.L
			{
				OFFSET -0.041726 0.033170 -0.433506
				CHANNELS 3 Xrotation Yrotation Zrotation
				JOINT Toe.L
				{
					OFFSET 0.044945 -0.119666 -0.063945
					CHANNELS 3 Xrotation Yrotation Zrotation
					End Site
					{
						OFFSET 0.000000 0.050000 0.000000
					}
				}
			}
		}
	}
	JOINT Thigh.R
	{
		OFFSET -0.060072 0.027820 -0.102736
		CHANNELS 3 Xrotation Yrotation Zrotation
		JOINT Shin.R
		{
			OFFSET -0.042679 0.021094 -0.395690
			CHANNELS 3 Xrotation Yrotation Zrotation
			JOINT Foot.R
			{
				OFFSET 0.015624 0.021586 -0.442429
				CHANNELS 3 Xrotation Yrotation Zrotation
				JOINT Toe.R
				{
					OFFSET -0.037222 -0.120438 -0.063868
					CHANNELS 3 Xrotation Yrotation Zrotation
					End Site
					{
						OFFSET 0.000000 0.050000 0.000000
					}
				}
			}
		}
	}
	JOINT Spine
	{
		OFFSET -0.002136 0.020037 0.109974
		CHANNELS 3 Xrotation Yrotation Zrotation
		JOINT Spine.2
		{
			OFFSET 0.006947 0.003092 0.134773
			CHANNELS 3 Xrotation Yrotation Zrotation
			JOINT Chest
			{
				OFFSET -0.010508 -0.023721 0.049501
				CHANNELS 3 Xrotation Yrotation Zrotation
				JOINT Neck
				{
					OFFSET -0.009599 0.029591 0.163883
					CHANNELS 3 Xrotation Yrotation Zrotation
					JOINT Head
					{
						OFFSET 0.022481 -0.021811 0.164011
						CHANNELS 3 Xrotation Yrotation Zrotation
						End Site
						{
							OFFSET 0.000000 0.050000 0.000000
						}
					}
				}
				JOINT Clavicle.L
				{
					OFFSET 0.043512 0.008466 0.083803
					CHANNELS 3 Xrotation Yrotation Zrotation
					JOINT UpperArm.L
					{
						OFFSET 0.107058 0.015003 0.062057
						CHANNELS 3 Xrotation Yrotation Zrotation
						JOINT ForeArm.L
						{
							OFFSET 0.264743 0.035595 -0.075740
							CHANNELS 3 Xrotation Yrotation Zrotation
							JOINT Hand.L
							{
								OFFSET 0.264182 0.006129 0.021599
								CHANNELS 3 Xrotation Yrotation Zrotation
								JOINT Thumb1.L
								{
									OFFSET 0.154569 0.002774 0.009776
									CHANNELS 3 Xrotation Yrotation Zrotation
									JOINT Thumb2.L
									{
										OFFSET 0.029892 0.000694 0.002444
										CHANNELS 3 Xrotation Yrotation Zrotation
										End Site
										{
											OFFSET 0.024910 0.000578 0.002037
										}
									}
								}
								JOINT Index1.L
								{
									OFFSET 0.137569 0.002774 0.009776
									CHANNELS 3 Xrotation Yrotation Zrotation
									JOINT Index2.L
									{
										OFFSET 0.029892 0.000694 0.002444
										CHANNELS 3 Xrotation Yrotation Zrotation
										JOINT Index3.L
										{
											OFFSET 0.021921 0.000509 0.001792
											CHANNELS 3 Xrotation Yrotation Zrotation
											End Site
											{
												OFFSET 0.017935 0.000416 0.001466
											}
										}
									}
								}
								JOINT Middle1.L
								{
									OFFSET 0.119569 0.002774 0.009776
									CHANNELS 3 Xrotation Yrotation Zrotation
									JOINT Middle2.L
									{
										OFFSET 0.030889 0.000717 0.002525
										CHANNELS 3 Xrotation Yrotation Zrotation
										JOINT Middle3.L
										{
											OFFSET 0.021921 0.000509 0.001792
											CHANNELS 3 Xrotation Yrotation Zrotation
											End Site
											{
												OFFSET 0.017935 0.000416 0.001466
											}
										}
									}
								}
								JOINT Ring1.L
								{
									OFFSET 0.101569 0.002774 0.009776
									CHANNELS 3 Xrotation Yrotation Zrotation
									JOINT Ring2.L
									{
										OFFSET 0.028896 0.000670 0.002362
										CHANNELS 3 Xrotation Yrotation Zrotation
										JOINT Ring3.L
										{
											OFFSET 0.019928 0.000462 0.001629
											CHANNELS 3 Xrotation Yrotation Zrotation
											End Site
											{
												OFFSET 0.016939 0.000393 0.001385
											}
										}
									}
								}
								JOINT Pinky1.L
								{
									OFFSET 0.085569 0.002774 0.009776
									CHANNELS 3 Xrotation Yrotation Zrotation
									JOINT Pinky2.L
									{
										OFFSET 0.023914 0.000555 0.001955
										CHANNELS 3 Xrotation Yrotation Zrotation
										JOINT Pinky3.L
										{
											OFFSET 0.016939 0.000393 0.001385
											CHANNELS 3 Xrotation Yrotation Zrotation
											End Site
											{
												OFFSET 0.013950 0.000324 0.001141
											}
										}
									}
								}
							}
						}
					}
				}
				JOINT Clavicle.R
				{
					OFFSET -0.041742 0.014586 0.083324
					CHANNELS 3 Xrotation Yrotation Zrotation
					JOINT UpperArm.R
					{
						OFFSET -0.092393 0.010026 0.057526
						CHANNELS 3 Xrotation Yrotation Zrotation
						JOINT ForeArm.R
						{
							OFFSET -0.280898 0.022750 -0.042667
							CHANNELS 3 Xrotation Yrotation Zrotation
							JOINT Hand.R
							{
								OFFSET -0.260900 0.018756 -0.003298
								CHANNELS 3 Xrotation Yrotation Zrotation
								JOINT Thumb1.R
								{
									OFFSET -0.154682 0.008604 -0.001513
									CHANNELS 3 Xrotation Yrotation Zrotation
									JOINT Thumb2.R
									{
										OFFSET -0.029920 0.002151 -0.000378
										CHANNELS 3 Xrotation Yrotation Zrotation
										End Site
										{
											OFFSET -0.024934 0.001793 -0.000315
										}
									}
								}
								JOINT Index1.R
								{
									OFFSET -0.137682 0.008604 -0.001513
									CHANNELS 3 Xrotation Yrotation Zrotation
									JOINT Index2.R
									{
										OFFSET -0.029920 0.002151 -0.000378
										CHANNELS 3 Xrotation Yrotation Zrotation
										JOINT Index3.R
										{
											OFFSET -0.021942 0.001577 -0.000277
											CHANNELS 3 Xrotation Yrotation Zrotation
											End Site
											{
												OFFSET -0.017952 0.001291 -0.000227
											}
										}
									}
								}
								JOINT Middle1.R
								{
									OFFSET -0.119682 0.008604 -0.001513
									CHANNELS 3 Xrotation Yrotation Zrotation
									JOINT Middle2.R
									{
										OFFSET -0.030918 0.002223 -0.000391
										CHANNELS 3 Xrotation Yrotation Zrotation
										JOINT Middle3.R
										{
											OFFSET -0.021942 0.001577 -0.000277
											CHANNELS 3 Xrotation Yrotation Zrotation
											End Site
											{
												OFFSET -0.017952 0.001291 -0.000227
											}
										}
									}
								}
								JOINT Ring1.R
								{
									OFFSET -0.101682 0.008604 -0.001513
									CHANNELS 3 Xrotation Yrotation Zrotation
									JOINT Ring2.R
									{
										OFFSET -0.028923 0.002079 -0.000366
										CHANNELS 3 Xrotation Yrotation Zrotation
										JOINT Ring3.R
										{
											OFFSET -0.019947 0.001434 -0.000252
											CHANNELS 3 Xrotation Yrotation Zrotation
											End Site
											{
												OFFSET -0.016955 0.001219 -0.000214
											}
										}
									}
								}
								JOINT Pinky1.R
								{
									OFFSET -0.085682 0.008604 -0.001513
									CHANNELS 3 Xrotation Yrotation Zrotation
									JOINT Pinky2.R
									{
										OFFSET -0.023936 0.001721 -0.000303
										CHANNELS 3 Xrotation Yrotation Zrotation
										JOINT Pinky3.R
										{
											OFFSET -0.016955 0.001219 -0.000214
											CHANNELS 3 Xrotation Yrotation Zrotation
											End Site
											{
												OFFSET -0.013963 0.001004 -0.000177
											}
										}
									}
								}
							}
						}
					}
				}
			}
		}
	}
}
MOTION
Frames: 8
Frame Time: 0.04166667
-0.003952 -0.039244 1.044849 -5.430005 1.159736 2.290619 4.010408 0.633797 -1.102952 4.143334 0.493952 -10.990873 -5.769728 0.621059 7.542414 2.844444 -3.765726 0.651714 0.946776 -2.116916 0.907851 7.450505 -0.198898 4.051952 -4.731931 -2.508946 -4.380582 0.852835 -2.856668 -1.580319 4.649626 -0.166384 2.281146 3.878754 -3.744328 -2.607644 -3.736441 3.085257 -0.038899 8.546976 -0.659822 2.993171 14.728857 0.853413 1.597720 5.517732 20.896267 3.567247 18.328470 49.212261 -22.049941 19.379488 -3.152617 -20.419279 5.444759 -1.324739 -7.644139 0.000000 0.000000 0.000000 0.000000 0.000000 0.000000 0.000000 0.000000 0.000000 0.000000 0.000000 0.000000 0.000000 0.000000 0.000000 0.000000 0.000000 0.000000 0.000000 0.000000 0.000000 0.000000 0.000000 0.000000 0.000000 0.000000 0.000000 0.000000 0.000000 0.000000 0.000000 0.000000 0.000000 0.000000 0.000000 0.000000 0.000000 0.000000 0.000000 0.000000 0.000000 0.000000 1.630656 -14.057398 -0.089152 33.438029 -53.495699 29.901068 13.122398 4.579536 26.383396 -1.882884 -3.443633 3.431558 0.000000 0.000000 0.000000 0.000000 0.000000 0.000000 0.000000 0.000000 0.000000 0.000000 0.000000 0.000000 0.000000 0.000000 0.000000 0.000000 0.000000 0.000000 0.000000 0.000000 0.000000 0.000000 0.000000 0.000000 0.000000 0.000000 0.000000 0.000000 0.000000 0.000000 0.000000 0.000000 0.000000 0.000000 0.000000 0.000000 0.000000 0.000000 0.000000 0.000000 0.000000 0.000000
-0.004467 -0.039661 1.044831 -5.379368 1.199155 2.122399 3.819851 0.693598 -1.150798 4.344588 0.406144 -10.817358 -5.841971 0.631548 7.631531 2.800062 -3.839370 0.661058 0.810672 -2.135973 0.986715 7.494166 -0.159831 4.057700 -4.684743 -2.529543 -4.307972 0.860840 -2.889472 -1.567982 4.665890 -0.213981 2.288010 3.712197 -3.663525 -2.609992 -3.600648 3.093796 -0.016605 8.374644 -0.645359 3.078025 14.767508 0.991662 1.502023 5.374544 20.892815 3.640664 18.350965 49.215631 -22.070006 19.380703 -3.112456 -20.291161 5.451222 -1.298659 -7.627131 0.000000 0.000000 0.000000 0.000000 0.000000 0.000000 0.000000 0.000000 0.000000 0.000000 0.000000 0.000000 0.000000 0.000000 0.000000 0.000000 0.000000 0.000000 0.000000 0.000000 0.000000 0.000000 0.000000 0.000000 0.000000 0.000000 0.000000 0.000000 0.000000 0.000000 0.000000 0.000000 0.000000 0.000000 0.000000 0.000000 0.000000 0.000000 0.000000 0.000000 0.000000 0.000000 1.470102 -14.029481 -0.091343 33.612253 -53.505397 30.099758 13.158219 4.587102 26.273205 -1.955905 -3.318519 3.425070 0.000000 0.000000 0.000000 0.000000 0.000000 0.000000 0.000000 0.000000 0.000000 0.000000 0.000000 0.000000 0.000000 0.000000 0.000000 0.000000 0.000000 0.000000 0.000000 0.000000 0.000000 0.000000 0.000000 0.000000 0.000000 0.000000 0.000000 0.000000 0.000000 0.000000 0.000000 0.000000 0.000000 0.000000 0.000000 0.000000 0.000000 0.000000 0.000000 0.000000 0.000000 0.000000
-0.004312 -0.039460 1.044824 -5.350798 1.213721 2.075520 3.745274 0.693410 -1.172367 4.429792 0.362924 -10.729492 -5.862063 0.642605 7.633696 2.802758 -3.839255 0.685488 0.867830 -2.163807 1.009540 7.350131 -0.140178 4.105091 -4.654443 -2.493487 -4.276496 0.866356 -2.923179 -1.585969 4.667596 -0.251301 2.312461 3.682044 -3.632424 -2.603491 -3.571970 3.085621 -0.008067 8.392604 -0.648604 3.045779 14.778764 1.032191 1.423583 5.328142 20.859239 3.669339 18.410035 49.238067 -22.087995 19.352874 -3.122703 -20.277101 5.406205 -1.322354 -7.626793 0.000000 0.000000 0.000000 0.000000 0.000000 0.000000 0.000000 0.000000 0.000000 0.000000 0.000000 0.000000 0.000000 0.000000 0.000000 0.000000 0.000000 0.000000 0.000000 0.000000 0.000000 0.000000 0.000000 0.000000 0.000000 0.000000 0.000000 0.000000 0.000000 0.000000 0.000000 0.000000 0.000000 0.000000 0.000000 0.000000 0.000000 0.000000 0.000000 0.000000 0.000000 0.000000 1.429547 -13.999734 -0.071647 33.704574 -53.543733 30.145937 13.175009 4.592471 26.291300 -2.005479 -3.227642 3.452539 0.000000 0.000000 0.000000 0.000000 0.000000 0.000000 0.000000 0.000000 0.000000 0.000000 0.000000 0.000000 0.000000 0.000000 0.000000 0.000000 0.000000 0.000000 0.000000 0.000000 0.000000 0.000000 0.000000 0.000000 0.000000 0.000000 0.000000 0.000000 0.000000 0.000000 0.000000 0.000000 0.000000 0.000000 0.000000 0.000000 0.000000 0.000000 0.000000 0.000000 0.000000 0.000000
-0.004089 -0.039477 1.044829 -5.349597 1.215591 2.048707 3.707068 0.687924 -1.184665 4.474763 0.352702 -10.660559 -5.854505 0.645349 7.650737 2.793501 -3.828025 0.698171 0.937561 -2.171120 1.033596 7.250240 -0.138174 4.172672 -4.659608 -2.462041 -4.261331 0.861215 -2.942988 -1.592816 4.659897 -0.280451 2.332543 3.669607 -3.609196 -2.579315 -3.537168 3.074809 0.002759 8.391717 -0.658614 3.054627 14.789404 1.054830 1.384172 5.277781 20.845271 3.686286 18.450996 49.245154 -22.060881 19.360470 -3.157404 -20.327050 5.414863 -1.342787 -7.649824 0.000000 0.000000 0.000000 0.000000 0.000000 0.000000 0.000000 0.000000 0.000000 0.000000 0.000000 0.000000 0.000000 0.000000 0.000000 0.000000 0.000000 0.000000 0.000000 0.000000 0.000000 0.000000 0.000000 0.000000 0.000000 0.000000 0.000000 0.000000 0.000000 0.000000 0.000000 0.000000 0.000000 0.000000 0.000000 0.000000 0.000000 0.000000 0.000000 0.000000 0.000000 0.000000 1.418852 -13.994363 -0.042698 33.755963 -53.538497 30.172536 13.198294 4.586214 26.306221 -1.996245 -3.140891 3.475104 0.000000 0.000000 0.000000 0.000000 0.000000 0.000000 0.000000 0.000000 0.000000 0.000000 0.000000 0.000000 0.000000 0.000000 0.000000 0.000000 0.000000 0.000000 0.000000 0.000000 0.000000 0.000000 0.000000 0.000000 0.000000 0.000000 0.000000 0.000000 0.000000 0.000000 0.000000 0.000000 0.000000 0.000000 0.000000 0.000000 0.000000 0.000000 0.000000 0.000000 0.000000 0.000000
-0.003863 -0.039309 1.044822 -5.334819 1.211209 1.993893 3.662317 0.695588 -1.195220 4.511523 0.341799 -10.598511 -5.835278 0.630515 7.678081 2.788774 -3.829102 0.698551 0.960444 -2.166303 1.044714 7.225413 -0.135925 4.238420 -4.688440 -2.443138 -4.223397 0.859134 -2.959782 -1.595755 4.648218 -0.307039 2.344487 3.664942 -3.586672 -2.555194 -3.512284 3.066978 0.006218 8.399934 -0.653938 3.060647 14.806174 1.076656 1.351042 5.244409 20.845882 3.700655 18.472935 49.247049 -22.020741 19.363513 -3.178475 -20.329066 5.380732 -1.287838 -7.671199 0.000000 0.000000 0.000000 0.000000 0.000000 0.000000 0.000000 0.000000 0.000000 0.000000 0.000000 0.000000 0.000000 0.000000 0.000000 0.000000 0.000000 0.000000 0.000000 0.000000 0.000000 0.000000 0.000000 0.000000 0.000000 0.000000 0.000000 0.000000 0.000000 0.000000 0.000000 0.000000 0.000000 0.000000 0.000000 0.000000 0.000000 0.000000 0.000000 0.000000 0.000000 0.000000 1.407746 -13.979642 -0.019931 33.800036 -53.547353 30.199222 13.210151 4.586632 26.331359 -2.001040 -3.098670 3.477796 0.000000 0.000000 0.000000 0.000000 0.000000 0.000000 0.000000 0.000000 0.000000 0.000000 0.000000 0.000000 0.000000 0.000000 0.000000 0.000000 0.000000 0.000000 0.000000 0.000000 0.000000 0.000000 0.000000 0.000000 0.000000 0.000000 0.000000 0.000000 0.000000 0.000000 0.000000 0.000000 0.000000 0.000000 0.000000 0.000000 0.000000 0.000000 0.000000 0.000000 0.000000 0.000000
-0.004084 -0.039161 1.044822 -5.329130 1.218067 1.957633 3.645642 0.697405 -1.201501 4.509146 0.360060 -10.577407 -5.811105 0.615905 7.717609 2.793841 -3.837582 0.693178 0.934501 -2.145540 1.065054 7.323322 -0.146729 4.285860 -4.734313 -2.425728 -4.176058 0.857941 -2.964817 -1.588539 4.616197 -0.333707 2.347687 3.697445 -3.571537 -2.536044 -3.507439 3.073588 0.009246 8.489418 -0.643804 3.076277 14.833026 1.086106 1.367238 5.235136 20.822462 3.708191 18.522003 49.254529 -22.019570 19.409593 -3.170174 -20.364798 5.277674 -1.232435 -7.674079 0.000000 0.000000 0.000000 0.000000 0.000000 0.000000 0.000000 0.000000 0.000000 0.000000 0.000000 0.000000 0.000000 0.000000 0.000000 0.000000 0.000000 0.000000 0.000000 0.000000 0.000000 0.000000 0.000000 0.000000 0.000000 0.000000 0.000000 0.000000 0.000000 0.000000 0.000000 0.000000 0.000000 0.000000 0.000000 0.000000 0.000000 0.000000 0.000000 0.000000 0.000000 0.000000 1.413162 -13.954083 -0.007983 33.837551 -53.530360 30.268035 13.236015 4.562933 26.276463 -2.006345 -3.096084 3.445189 0.000000 0.000000 0.000000 0.000000 0.000000 0.000000 0.000000 0.000000 0.000000 0.000000 0.000000 0.000000 0.000000 0.000000 0.000000 0.000000 0.000000 0.000000 0.000000 0.000000 0.000000 0.000000 0.000000 0.000000 0.000000 0.000000 0.000000 0.000000 0.000000 0.000000 0.000000 0.000000 0.000000 0.000000 0.000000 0.000000 0.000000 0.000000 0.000000 0.000000 0.000000 0.000000
-0.003988 -0.039189 1.044828 -5.330669 1.209370 1.916382 3.606350 0.712398 -1.211487 4.549627 0.361334 -10.526995 -5.796055 0.609190 7.743670 2.796452 -3.840315 0.692168 0.909731 -2.130599 1.080435 7.413713 -0.146213 4.300669 -4.778826 -2.428316 -4.134951 0.857252 -2.967143 -1.589372 4.611076 -0.341834 2.354543 3.733642 -3.568543 -2.517722 -3.539693 3.075638 0.017188 8.534666 -0.619776 3.077373 14.854339 1.103607 1.357617 5.240584 20.822765 3.716808 18.537829 49.247006 -22.000805 19.422154 -3.181390 -20.384068 5.216842 -1.187403 -7.685206 0.000000 0.000000 0.000000 0.000000 0.000000 0.000000 0.000000 0.000000 0.000000 0.000000 0.000000 0.000000 0.000000 0.000000 0.000000 0.000000 0.000000 0.000000 0.000000 0.000000 0.000000 0.000000 0.000000 0.000000 0.000000 0.000000 0.000000 0.000000 0.000000 0.000000 0.000000 0.000000 0.000000 0.000000 0.000000 0.000000 0.000000 0.000000 0.000000 0.000000 0.000000 0.000000 1.415759 -13.934881 0.000251 33.863430 -53.535677 30.306167 13.263049 4.561927 26.266157 -2.029023 -3.076393 3.431187 0.000000 0.000000 0.000000 0.000000 0.000000 0.000000 0.000000 0.000000 0.000000 0.000000 0.000000 0.000000 0.000000 0.000000 0.000000 0.000000 0.000000 0.000000 0.000000 0.000000 0.000000 0.000000 0.000000 0.000000 0.000000 0.000000 0.000000 0.000000 0.000000 0.000000 0.000000 0.000000 0.000000 0.000000 0.000000 0.000000 0.000000 0.000000 0.000000 0.000000 0.000000 0.000000
-0.004164 -0.039126 1.044831 -5.321154 1.221180 1.865952 3.565992 0.720052 -1.219325 4.573257 0.353187 -10.463296 -5.783219 0.607274 7.762167 2.805732 -3.832297 0.695890 0.903663 -2.126841 1.089420 7.443646 -0.140620 4.299593 -4.790213 -2.458395 -4.075497 0.859020 -2.965523 -1.593172 4.616476 -0.347417 2.364702 3.761882 -3.568159 -2.500251 -3.582058 3.077344 0.030608 8.576331 -0.596564 3.081925 14.866397 1.122693 1.357138 5.250645 20.818267 3.738894 18.555799 49.255738 -21.996278 19.429061 -3.185467 -20.393060 5.157334 -1.143141 -7.702841 0.000000 0.000000 0.000000 0.000000 0.000000 0.000000 0.000000 0.000000 0.000000 0.000000 0.000000 0.000000 0.000000 0.000000 0.000000 0.000000 0.000000 0.000000 0.000000 0.000000 0.000000 0.000000 0.000000 0.000000 0.000000 0.000000 0.000000 0.000000 0.000000 0.000000 0.000000 0.000000 0.000000 0.000000 0.000000 0.000000 0.000000 0.000000 0.000000 0.000000 0.000000 0.000000 1.422798 -13.913462 0.000306 33.890110 -53.536834 30.354909 13.296141 4.563949 26.227257 -2.045404 -3.064213 3.430952 0.000000 0.000000 0.000000 0.000000 0.000000 0.000000 0.000000 0.000000 0.000000 0.000000 0.000000 0.000000 0.000000 0.000000 0.000000 0.000000 0.000000 0.000000 0.000000 0.000000 0.000000 0.000000 0.000000 0.000000 0.000000 0.000000 0.000000 0.000000 0.000000 0.000000 0.000000 0.000000 0.000000 0.000000 0.000000 0.000000 0.000000 0.000000 0.000000 0.000000 0.000000 0.000000
